<?xml version="1.0" ?><!DOCTYPE svg  PUBLIC '-//W3C//DTD SVG 1.1//EN'  'http://www.w3.org/Graphics/SVG/1.1/DTD/svg11.dtd'><svg height="8.4666mm" style="shape-rendering:geometricPrecision; text-rendering:geometricPrecision; image-rendering:optimizeQuality; fill-rule:evenodd; clip-rule:evenodd" version="1.1" viewBox="0 0 846.66 846.66" width="8.4666mm" xml:space="preserve" xmlns="http://www.w3.org/2000/svg" xmlns:xlink="http://www.w3.org/1999/xlink"><defs><style type="text/css">
   <![CDATA[
    .fil0 {fill:black;fill-rule:nonzero}
   ]]>
  </style></defs><g id="Layer_x0020_1"><path class="fil0" d="M44.68 7.8l672.58 0c11.46,0 20.76,9.3 20.76,20.76l0 38.08 63.96 0c11.46,0 20.75,9.29 20.75,20.76l0 595.18c0,11.46 -9.29,20.76 -20.75,20.76l-63.96 0 0 114.76c0,11.46 -9.3,20.76 -20.76,20.76l-672.58 0c-11.46,0 -20.75,-9.3 -20.75,-20.76l0 -789.54c0,-11.46 9.29,-20.76 20.75,-20.76zm693.34 100.36l0 553.66 43.2 0 0 -553.66 -43.2 0zm-543.78 85.51c-27.3,0 -27.3,-41.52 0,-41.52l373.46 0c27.3,0 27.3,41.52 0,41.52l-373.46 0zm0 500.84c-27.3,0 -27.3,-41.52 0,-41.52l373.46 0c27.3,0 27.3,41.52 0,41.52l-373.46 0zm0 -375.63c-27.3,0 -27.3,-41.51 0,-41.51l373.46 0c27.3,0 27.3,41.51 0,41.51l-373.46 0zm0 125.21c-27.3,0 -27.3,-41.51 0,-41.51l373.46 0c27.3,0 27.3,41.51 0,41.51l-373.46 0zm0 125.21c-27.3,0 -27.3,-41.52 0,-41.52l373.46 0c27.3,0 27.3,41.52 0,41.52l-373.46 0zm502.26 -519.98l-631.06 0 0 748.02 631.06 0 0 -748.02z"/></g></svg>